<svg width="23" height="31" viewBox="0 0 23 31" fill="none" xmlns="http://www.w3.org/2000/svg">
<g clip-path="url(#clip0_1_269)">
<path d="M11.3654 6.41913C8.69884 6.41913 6.53064 8.62312 6.53064 11.3337C6.53064 14.0442 8.69884 16.2482 11.3654 16.2482C14.0319 16.2482 16.2001 14.0442 16.2001 11.3337C16.2001 8.62312 14.0319 6.41913 11.3654 6.41913ZM11.3654 14.7361C9.52075 14.7361 8.01825 13.2088 8.01825 11.3337C8.01825 9.45859 9.52075 7.9313 11.3654 7.9313C13.21 7.9313 14.7125 9.45859 14.7125 11.3337C14.7125 13.2088 13.21 14.7361 11.3654 14.7361Z" fill="#EAB8F2"/>
<path d="M19.4134 3.38327C14.9766 -1.12678 7.75418 -1.12678 3.31737 3.38327C-0.450016 7.21284 -1.08597 13.2955 1.80744 17.8434L8.84758 28.9125C9.40172 29.7858 10.3463 30.3075 11.3654 30.3075C12.3844 30.3075 13.329 29.7858 13.8832 28.9125L20.9233 17.8434C23.8167 13.2955 23.1807 7.21284 19.4134 3.38327ZM19.6737 17.023L12.6336 28.0921C12.3509 28.5382 11.886 28.7953 11.3616 28.7953C10.8373 28.7953 10.3761 28.5382 10.0897 28.0921L3.0496 17.023C0.53181 13.0687 1.08223 7.7799 4.36242 4.45313C6.2926 2.49109 8.82526 1.51196 11.3579 1.51196C13.8906 1.51196 16.4233 2.49109 18.3534 4.45313C21.6299 7.78368 22.1803 13.0687 19.6663 17.023H19.6737Z" fill="#EAB8F2"/>
</g>
<defs>
<clipPath id="clip0_1_269">
<rect width="22.7308" height="30.3077" fill="white"/>
</clipPath>
</defs>
</svg>
