<svg width="658" height="75" viewBox="0 0 658 75" fill="none" xmlns="http://www.w3.org/2000/svg">
<g clip-path="url(#clip0_10_143)">
<path d="M649.669 58.8169C652.811 58.8169 655.615 58.4804 658 58.0541V48.2202C656.898 48.4744 655.878 48.5567 654.176 48.5567C651.033 48.5567 649.249 47.2854 649.249 43.4714V26.1816H657.835V16.4373H649.249V3.22315H635.908V16.4448H628.942V26.1891H635.908V45.5953C635.908 48.8184 636.336 51.017 637.265 52.7969C639.305 56.9473 643.812 58.8169 649.676 58.8169M585.35 58.3084H598.691V35.679C598.691 29.9132 601.413 25.7628 606.34 25.7628C611.777 25.7628 612.542 30.1675 612.542 35.5893V58.3009H625.882V32.0296C625.882 20.5055 619.763 15.4203 611.012 15.4203C604.81 15.4203 600.558 18.3892 598.346 21.5226H598.264V16.4373H585.343V58.3009L585.35 58.3084ZM564.668 11.6961H577.927V0H564.668V11.6961ZM564.668 58.3084H578.009V16.4448H564.668V58.3084ZM479.908 26.5256V11.1053H489.087C495.206 11.1053 498.093 13.6479 498.093 18.6434C498.093 23.6389 495.461 26.5256 489.342 26.5256H479.908ZM466.485 58.3084H479.908V37.3766H491.127C503.537 37.3766 511.269 30.7658 511.269 18.2246C511.269 5.68352 503.192 0.00747831 490.707 0.00747831H466.485V58.3159V58.3084ZM418.815 46.6946C413.288 46.6946 410.483 42.1179 410.483 35.8436C410.483 29.5692 413.288 25.0823 418.815 25.0823C424.341 25.0823 427.228 30.2498 427.228 35.8436C427.228 41.4373 424.506 46.6946 418.815 46.6946ZM418.387 75C430.88 75 439.804 69.7427 439.804 57.4559V16.4448H426.973V21.4478C425.106 18.6509 421.447 15.4278 414.99 15.4278C404.882 15.4278 396.805 22.7191 396.805 36.023C396.805 49.327 404.882 56.4463 414.99 56.4463C420.772 56.4463 424.506 53.7317 426.718 50.6805V57.5456C426.718 63.6479 423.659 66.0185 418.897 66.0185C414.135 66.0185 411.503 63.7302 410.821 58.9815L397.735 60.1705C398.755 69.496 406.066 75 418.387 75ZM351.212 58.3084H364.552V35.679C364.552 29.9132 367.274 25.7628 372.201 25.7628C377.638 25.7628 378.403 30.1675 378.403 35.5893V58.3009H391.743V32.0296C391.743 20.5055 385.624 15.4203 376.873 15.4203C370.671 15.4203 366.42 18.3892 364.207 21.5226H364.125V16.4373H351.204V58.3009L351.212 58.3084ZM330.53 11.6961H343.788V0H330.53V11.6961ZM330.53 58.3084H343.87V16.4448H330.53V58.3084ZM282.822 58.3084H296.162V35.679C296.162 29.9132 298.884 25.7628 303.811 25.7628C309.248 25.7628 310.013 30.1675 310.013 35.5893V58.3009H323.353V32.0296C323.353 20.5055 317.234 15.4203 308.483 15.4203C302.281 15.4203 298.029 18.3892 295.817 21.5226H295.735V16.4373H282.822V58.3009V58.3084ZM251.686 58.3084H264.772V38.6479C264.772 31.3566 269.953 27.7146 276.583 27.7146C277.775 27.7146 278.54 27.7969 279.47 27.8866V15.51C278.622 15.4278 278.112 15.4278 277.347 15.4278C270.973 15.4278 266.302 19.4137 264.262 24.6635V16.4448H251.686V58.3084ZM219.006 59.3255C224.443 59.3255 228.612 56.9548 231.244 53.1409H231.327V58.3084H244.247V16.4448H230.907V40.0015C230.907 45.169 228.275 48.9829 223.768 48.9829C219.006 48.9829 217.821 45.6775 217.821 40.7643V16.4448H204.563V42.7161C204.563 53.2232 209.745 59.3255 219.013 59.3255M176.899 58.3084H190.577V11.1053H207.323V0H160.072V11.1053H176.899V58.3084ZM109.342 32.2914C110.189 27.2884 113.849 23.9829 118.858 23.9829C123.867 23.9829 127.099 27.7146 127.354 32.2914H109.342ZM118.693 59.3255C130.931 59.3255 137.388 53.2232 139.765 45.513L127.609 44.4137C126.507 48.2276 123.612 50.516 118.94 50.516C113.924 50.516 109.679 47.6369 109.079 40.4278H140.012V37.4589C140.012 24.2372 131.516 15.4278 118.685 15.4278C105.855 15.4278 96.5936 24.1549 96.5936 37.3766C96.5936 52.0341 106.537 59.3255 118.685 59.3255M51.0826 58.3084H64.4232V35.679C64.4232 29.9132 67.1453 25.7628 72.0721 25.7628C77.5088 25.7628 78.2737 30.1675 78.2737 35.5893V58.3009H91.6143V32.0296C91.6143 20.5055 85.5776 15.4203 76.7439 15.4203C71.0522 15.4203 66.9728 17.7086 64.5057 21.0963H64.4232V0H51.0826V58.3084ZM16.8276 58.3084H30.5131V11.1053H47.2582V0H0V11.1053H16.8276V58.3084Z" fill="white"/>
<path d="M557.65 36.2923C557.65 48.8633 547.428 59.0562 534.823 59.0562C522.217 59.0562 511.996 48.8633 511.996 36.2923C511.996 23.7212 522.217 13.5283 534.823 13.5283C539.037 13.5283 543.124 14.6874 546.664 16.8337C548.216 14.7248 550.668 13.4759 553.308 13.4759C557.859 13.4759 561.541 17.1553 561.541 21.6871C561.541 21.732 561.541 21.7768 561.534 21.8142C561.271 24.7009 559.089 27.7072 556.915 30.5564C557.395 32.4185 557.65 34.3479 557.65 36.2848V36.2923ZM553.308 18.2546C555.212 18.2546 556.75 19.7951 556.75 21.6871C556.75 23.5791 555.205 25.1197 553.308 25.1197C551.41 25.1197 549.866 23.5791 549.866 21.6871C549.866 19.7951 551.41 18.2546 553.308 18.2546ZM553.308 20.2139C552.49 20.2139 551.823 20.872 551.823 21.6946C551.823 22.5172 552.483 23.1753 553.308 23.1753C554.132 23.1753 554.792 22.5172 554.792 21.6946C554.792 20.872 554.132 20.2139 553.308 20.2139ZM545.704 18.5313C543.289 17.058 540.597 16.0859 537.755 15.6895C541.377 19.0024 544.159 23.0033 545.771 27.4604C546.191 27.251 546.611 27.0266 547.024 26.7948C546.139 25.3664 545.141 23.3922 545.074 21.6871C545.074 20.5654 545.299 19.5034 545.704 18.5313ZM548.111 28.4176C547.541 28.7466 546.964 29.0532 546.379 29.3374C547.661 33.9142 547.661 38.6704 546.379 43.2396C548.553 44.2941 550.616 45.6476 552.543 47.2779C554.537 44.0921 555.685 40.3231 555.685 36.2923C555.685 35.0284 555.58 33.8095 555.362 32.6054C554.912 33.2112 554.492 33.7945 554.125 34.3554C553.735 34.9611 552.85 34.9387 552.475 34.3404C551.14 32.2988 549.521 30.4143 548.103 28.4176H548.111ZM559.584 21.6497C559.562 18.2097 556.757 15.4278 553.308 15.4278C549.858 15.4278 547.054 18.2097 547.031 21.6497C547.331 24.9103 551.275 29.2851 553.308 32.0969C555.452 29.1206 559.284 24.843 559.584 21.6497ZM535.805 16.5645V30.0628C538.632 29.9432 541.377 29.3299 543.986 28.268C542.397 23.7885 539.54 19.8026 535.805 16.5645ZM535.805 32.0221V40.5549C538.812 40.6671 541.759 41.3102 544.564 42.4394C545.651 38.3862 545.651 34.1908 544.564 30.1376C541.767 31.2593 538.812 31.91 535.805 32.0221ZM535.805 42.5142V56.0126C539.54 52.7745 542.397 48.7885 543.986 44.309C541.362 43.2396 538.625 42.6264 535.805 42.5142ZM533.848 56.0126V42.5142C531.036 42.6339 528.291 43.2471 525.667 44.309C527.256 48.781 530.113 52.7745 533.848 56.0126ZM533.848 40.5549V32.0221C530.841 31.91 527.894 31.2668 525.089 30.1376C524.002 34.1908 524.002 38.3862 525.089 42.432C527.894 41.3102 530.848 40.6671 533.848 40.5474V40.5549ZM533.848 30.0703V16.5719C530.113 19.8101 527.256 23.796 525.667 28.2755C528.299 29.3449 531.021 29.9581 533.848 30.0703ZM545.779 45.1241C544.159 49.5812 541.377 53.5821 537.762 56.895C543.207 56.1322 548.111 53.2456 551.433 48.8932C549.663 47.3826 547.773 46.1188 545.779 45.1241ZM531.891 15.6895C526.446 16.4523 521.55 19.3389 518.22 23.6913C519.99 25.2019 521.88 26.4658 523.874 27.4604C525.494 23.0033 528.276 19.0024 531.891 15.6895ZM513.961 36.2923C513.961 40.3231 515.108 44.0921 517.103 47.2779C519.03 45.6476 521.1 44.3015 523.267 43.2396C521.985 38.6629 521.985 33.9142 523.267 29.3374C521.092 28.283 519.03 26.9294 517.103 25.2991C515.108 28.4849 513.961 32.254 513.961 36.2848V36.2923ZM531.891 56.895C528.276 53.5821 525.494 49.5812 523.874 45.1241C521.887 46.1188 519.99 47.3826 518.22 48.8932C521.542 53.2381 526.446 56.1322 531.891 56.895Z" fill="#EAB8F2"/>
</g>
<defs>
<clipPath id="clip0_10_143">
<rect width="658" height="75" fill="white"/>
</clipPath>
</defs>
</svg>
