<svg width="473" height="249" viewBox="0 0 473 249" fill="none" xmlns="http://www.w3.org/2000/svg">
<g clip-path="url(#clip0_130_750)">
<path d="M3.2019 0H32.9028C46.1055 0 54.5469 5.5484 54.5469 17.4274C54.5469 26.0003 49.0163 30.6726 44.9412 31.9346V32.1327C49.7025 33.3008 56.4909 37.3891 56.4909 47.808C56.4909 59.687 48.7253 66.9875 33.88 66.9875H3.2019V0ZM39.9928 19.5758C39.9928 14.5176 36.4998 12.2753 31.5513 12.2753H18.6397V27.4708H31.2603C36.7908 27.4708 39.9928 25.0408 39.9928 19.5863V19.5758ZM41.9264 46.3479C41.9264 41.0915 38.7245 38.067 32.5078 38.067H18.6293V54.7226H32.7988C38.9116 54.7226 41.9264 51.3122 41.9264 46.3479Z" fill="white"/>
<path d="M62.8635 49.0804V18.8979H78.0103V46.8485C78.0103 52.5012 79.3721 56.2975 84.8091 56.2975C89.9551 56.2975 92.9595 51.9171 92.9595 45.9724V18.8979H108.2V66.9979H93.4481V61.0532H93.3545C90.3501 65.4335 85.5888 68.166 79.3721 68.166C68.7891 68.166 62.8739 61.1575 62.8739 49.0804H62.8635Z" fill="white"/>
<path d="M116.974 0H132.121V13.4434H116.974V0ZM116.974 18.8875H132.214V66.9875H116.974V18.8875Z" fill="white"/>
<path d="M140.895 0H156.135V66.9979H140.895V0Z" fill="white"/>
<path d="M170.429 60.6673C169.358 58.6232 168.88 56.0889 168.88 52.3865V30.0886H160.917V18.8875H168.88V3.70241H184.121V18.8979H193.924V30.099H184.121V49.9669C184.121 54.3472 186.158 55.8073 189.755 55.8073C191.699 55.8073 192.863 55.7134 194.121 55.4214V66.7164C191.408 67.2065 188.196 67.5924 184.609 67.5924C177.914 67.5924 172.768 65.4544 170.44 60.6778L170.429 60.6673Z" fill="white"/>
<path d="M222.835 0H268.16V12.7551H237.971V26.8764H266.601V39.6314H237.971V66.9979H222.824V0H222.835Z" fill="white"/>
<path d="M271.622 42.948C271.622 28.5346 281.519 17.7299 296.957 17.7299C312.395 17.7299 322.385 28.5346 322.385 42.948C322.385 57.3613 312.384 68.1661 296.957 68.1661C281.53 68.1661 271.622 57.4551 271.622 42.948ZM306.76 42.948C306.76 34.3751 303.465 28.6285 297.051 28.6285C290.636 28.6285 287.247 34.3751 287.247 42.948C287.247 51.5209 290.543 57.2674 297.051 57.2674C303.558 57.2674 306.76 51.5209 306.76 42.948Z" fill="white"/>
<path d="M328.716 18.8875H343.083V28.3365C345.412 22.2979 350.755 17.7194 358.033 17.7194C358.906 17.7194 359.488 17.7194 360.455 17.8133V32.0284C359.384 31.9346 358.511 31.8303 357.159 31.8303C349.591 31.8303 343.665 36.0124 343.665 44.3872V66.9771H328.716V18.8875Z" fill="white"/>
<path d="M3.2019 90.4222H32.9028C46.1055 90.4222 54.5469 95.9706 54.5469 107.85C54.5469 116.423 49.0163 121.095 44.9412 122.357V122.555C49.7025 123.723 56.4909 127.811 56.4909 138.23C56.4909 150.109 48.7253 157.41 33.88 157.41H3.2019V90.4118V90.4222ZM39.9928 109.988C39.9928 104.929 36.4998 102.687 31.5513 102.687H18.6397V117.883H31.2603C36.7908 117.883 39.9928 115.453 39.9928 109.998V109.988ZM41.9264 136.77C41.9264 131.514 38.7245 128.489 32.5078 128.489H18.6293V145.145H32.7988C38.9116 145.145 41.9264 141.734 41.9264 136.77Z" fill="white"/>
<path d="M118.585 109.31H132.952V118.759C135.281 112.72 140.624 108.142 147.901 108.142C148.775 108.142 149.357 108.142 150.324 108.235V122.451C149.253 122.357 148.38 122.252 147.028 122.252C139.46 122.252 133.534 126.435 133.534 134.809V157.399H118.585V109.299V109.31Z" fill="white"/>
<path d="M152.652 133.36C152.652 117.778 162.071 108.142 174.39 108.142C182.062 108.142 186.428 111.448 188.757 114.67V90.4222H203.904V157.42H189.048V151.475C186.137 155.658 181.282 158.588 174.39 158.588C162.061 158.588 152.652 148.952 152.652 133.37V133.36ZM189.537 133.36C189.537 125.371 185.846 119.04 178.86 119.04C171.874 119.04 168.277 125.277 168.277 133.36C168.277 141.442 171.77 147.679 178.86 147.679C185.95 147.679 189.537 141.349 189.537 133.36Z" fill="white"/>
<path d="M210.266 133.36C210.266 118.164 221.234 108.142 235.507 108.142C249.781 108.142 259.875 118.268 259.875 133.464V136.874H224.539C225.215 145.155 230.07 148.461 235.798 148.461C241.142 148.461 244.437 145.833 245.695 141.453L259.573 142.715C256.86 151.58 249.479 158.588 235.497 158.588C221.514 158.588 210.256 150.213 210.256 133.37L210.266 133.36ZM245.404 127.519C245.113 122.263 241.235 117.976 235.694 117.976C230.153 117.976 225.797 121.773 224.82 127.519H245.394H245.404Z" fill="white"/>
<path d="M266.393 109.31H280.76V118.759C283.089 112.72 288.432 108.142 295.71 108.142C296.583 108.142 297.165 108.142 298.132 108.235V122.451C297.061 122.357 296.188 122.252 294.836 122.252C287.268 122.252 281.343 126.435 281.343 134.809V157.399H266.393V109.299V109.31Z" fill="white"/>
<path d="M302.249 90.4222H317.489V157.42H302.249V90.4222Z" fill="white"/>
<path d="M323.861 133.36C323.861 118.164 334.829 108.142 349.103 108.142C363.376 108.142 373.47 118.268 373.47 133.464V136.874H338.135C338.811 145.155 343.666 148.461 349.394 148.461C354.737 148.461 358.033 145.833 359.29 141.453L373.169 142.715C370.456 151.58 363.075 158.588 349.092 158.588C335.11 158.588 323.851 150.213 323.851 133.37L323.861 133.36ZM358.999 127.519C358.708 122.263 354.831 117.976 349.29 117.976C343.749 117.976 339.393 121.773 338.416 127.519H358.989H358.999Z" fill="white"/>
<path d="M376.818 141.734L390.312 140.472C390.8 146.511 395.26 149.233 400.604 149.233C405.947 149.233 409.149 147.095 409.149 143.872C409.149 140.65 406.041 139.68 400.708 138.512L393.722 136.958C384.594 134.914 378.388 131.117 378.388 122.941C378.388 114.274 387.515 108.142 399.938 108.142C412.361 108.142 421 114.086 422.071 123.045L408.286 124.411C407.797 119.833 404.502 117.497 399.845 117.497C395.676 117.497 392.568 119.249 392.568 122.169C392.568 125.089 395.094 125.871 399.658 126.841L406.747 128.395C417.622 130.825 423.246 134.34 423.246 142.412C423.246 152.341 413.827 158.578 400.531 158.578C387.234 158.578 378.013 152.925 376.849 141.734H376.818Z" fill="white"/>
<path d="M426.604 141.734L440.097 140.472C440.586 146.511 445.046 149.233 450.389 149.233C455.733 149.233 458.935 147.095 458.935 143.872C458.935 140.65 455.826 139.68 450.493 138.512L443.507 136.958C434.38 134.914 428.173 131.117 428.173 122.941C428.173 114.274 437.301 108.142 449.724 108.142C462.147 108.142 470.786 114.086 471.857 123.045L458.072 124.411C457.583 119.833 454.288 117.497 449.63 117.497C445.462 117.497 442.353 119.249 442.353 122.169C442.353 125.089 444.879 125.871 449.443 126.841L456.533 128.395C467.407 130.825 473.031 134.34 473.031 142.412C473.031 152.341 463.613 158.578 450.316 158.578C437.02 158.578 427.799 152.925 426.635 141.734H426.604Z" fill="white"/>
<path d="M0 214.333C0 193.401 13.5874 179.666 33.88 179.666C52.6133 179.666 62.323 191.055 64.6517 200.702L49.505 203.82C47.852 197.782 42.9972 192.233 34.0672 192.233C23.6817 192.233 16.0096 200.608 16.0096 214.437C16.0096 228.267 23.4842 236.735 34.5454 236.735C43.964 236.735 50.0767 230.697 50.5653 222.416H31.832V210.046H65.6081V247.832H52.9876V240.239H52.894C49.401 244.62 42.7996 249 32.0296 249C13.972 249 0 236.047 0 214.333Z" fill="white"/>
<path d="M75.4736 199.732H89.8407V209.181C92.1693 203.142 97.5128 198.564 104.79 198.564C105.663 198.564 106.245 198.564 107.212 198.658V212.873C106.141 212.779 105.268 212.675 103.917 212.675C96.3485 212.675 90.4228 216.857 90.4228 225.232V247.821H75.4736V199.721V199.732Z" fill="white"/>
<path d="M109.343 223.782C109.343 209.369 119.24 198.564 134.678 198.564C150.116 198.564 160.106 209.369 160.106 223.782C160.106 238.195 150.105 249 134.678 249C119.25 249 109.343 238.289 109.343 223.782ZM144.481 223.782C144.481 215.209 141.186 209.462 134.771 209.462C128.357 209.462 124.968 215.209 124.968 223.782C124.968 232.355 128.264 238.101 134.771 238.101C141.279 238.101 144.481 232.355 144.481 223.782Z" fill="white"/>
<path d="M160.408 199.732H175.742L183.892 229.82H183.986L191.845 199.732H205.817L213.78 229.727H213.874L222.024 199.732H237.264L222.804 247.832H206.888L198.924 215.605H198.831L190.774 247.832H174.952L160.387 199.732H160.408Z" fill="white"/>
<path d="M249.23 241.501C248.159 239.457 247.681 236.923 247.681 233.22V210.923H239.718V199.721H247.681V184.526H262.921V199.721H272.724V210.923H262.921V230.79C262.921 235.171 264.959 236.631 268.556 236.631C270.5 236.631 271.664 236.537 272.922 236.245V247.54C270.209 248.03 266.996 248.416 263.41 248.416C256.715 248.416 251.569 246.278 249.24 241.501H249.23Z" fill="white"/>
<path d="M279.648 180.844H294.888V205.093H294.982C297.799 201.202 302.456 198.564 308.954 198.564C319.048 198.564 325.94 204.404 325.94 217.649V247.832H310.7V221.738C310.7 215.501 309.827 210.443 303.61 210.443C297.976 210.443 294.878 215.219 294.878 221.832V247.832H279.637V180.834L279.648 180.844Z" fill="white"/>
<path d="M110.632 133.203C110.632 147.012 99.4776 158.213 85.7031 158.213C71.9287 158.213 60.7739 147.012 60.7739 133.203C60.7739 119.395 71.9287 108.194 85.7031 108.194C90.3085 108.194 94.7683 109.466 98.6355 111.823C100.33 109.508 103.012 108.131 105.892 108.131C110.861 108.131 114.884 112.167 114.884 117.153C114.884 117.205 114.884 117.246 114.884 117.299C114.604 120.469 112.213 123.775 109.842 126.904C110.372 128.948 110.643 131.076 110.643 133.203H110.632ZM105.892 113.388C107.971 113.388 109.655 115.077 109.655 117.163C109.655 119.249 107.971 120.938 105.892 120.938C103.813 120.938 102.129 119.249 102.129 117.163C102.129 115.077 103.813 113.388 105.892 113.388ZM105.892 115.546C104.998 115.546 104.27 116.276 104.27 117.173C104.27 118.07 104.998 118.8 105.892 118.8C106.786 118.8 107.514 118.07 107.514 117.173C107.514 116.276 106.786 115.546 105.892 115.546ZM97.5856 113.7C94.945 112.084 92.003 111.01 88.905 110.572C92.8555 114.211 95.8911 118.602 97.6583 123.504C98.1158 123.275 98.5732 123.024 99.0202 122.774C98.0534 121.21 96.9618 119.04 96.889 117.163C96.889 115.932 97.1386 114.764 97.5752 113.69L97.5856 113.7ZM100.216 124.557C99.592 124.912 98.9682 125.256 98.3237 125.569C99.7271 130.596 99.7271 135.821 98.3237 140.848C100.694 142.006 102.95 143.497 105.06 145.28C107.233 141.776 108.491 137.646 108.491 133.214C108.491 131.827 108.376 130.492 108.137 129.167C107.649 129.835 107.181 130.471 106.786 131.086C106.36 131.743 105.393 131.722 104.987 131.076C103.532 128.833 101.765 126.768 100.216 124.568V124.557ZM112.743 117.121C112.722 113.346 109.655 110.29 105.892 110.29C102.129 110.29 99.0618 113.346 99.041 117.121C99.3737 120.699 103.678 125.506 105.892 128.604C108.231 125.34 112.42 120.636 112.743 117.121ZM86.7739 111.542V126.372C89.8615 126.247 92.8555 125.569 95.7039 124.401C93.9678 119.478 90.8491 115.098 86.7739 111.542ZM86.7739 128.521V137.896C90.059 138.022 93.2713 138.731 96.3381 139.961C97.5232 135.508 97.5232 130.898 96.3381 126.445C93.2817 127.676 90.059 128.385 86.7739 128.521ZM86.7739 140.045V154.875C90.8491 151.319 93.9678 146.939 95.7039 142.016C92.8347 140.838 89.8511 140.17 86.7739 140.045ZM84.6324 154.875V140.045C81.5552 140.17 78.5612 140.848 75.7023 142.016C77.4384 146.928 80.5572 151.309 84.6324 154.875ZM84.6324 137.896V128.521C81.3473 128.395 78.135 127.686 75.0682 126.456C73.8831 130.909 73.8831 135.519 75.0682 139.961C78.135 138.731 81.3577 138.022 84.6324 137.896ZM84.6324 126.372V111.542C80.5572 115.098 77.4384 119.478 75.7023 124.401C78.5716 125.579 81.5552 126.247 84.6324 126.372ZM97.6583 142.913C95.8911 147.815 92.8555 152.205 88.905 155.845C94.8515 155.011 100.205 151.83 103.833 147.053C101.9 145.395 99.8311 144.008 97.6583 142.913ZM82.5012 110.572C76.5548 111.406 71.2009 114.587 67.5728 119.364C69.5064 121.022 71.5752 122.409 73.7479 123.504C75.5152 118.602 78.5508 114.211 82.5012 110.572ZM62.9259 133.203C62.9259 137.636 64.1838 141.766 66.3565 145.27C68.4564 143.487 70.7227 141.995 73.093 140.838C71.6895 135.811 71.6895 130.586 73.093 125.569C70.7227 124.411 68.4668 122.92 66.3565 121.137C64.1838 124.641 62.9259 128.771 62.9259 133.203ZM82.5012 155.835C78.5508 152.195 75.5152 147.804 73.7479 142.903C71.5752 143.998 69.5064 145.385 67.5728 147.043C71.2009 151.82 76.5548 154.99 82.5012 155.835Z" fill="#EAB8F2"/>
</g>
<defs>
<clipPath id="clip0_130_750">
<rect width="473" height="249" fill="white"/>
</clipPath>
</defs>
</svg>
