<svg width="27" height="27" viewBox="0 0 27 27" fill="none" xmlns="http://www.w3.org/2000/svg">
<g clip-path="url(#clip0_7_246)">
<path d="M13.9083 0.14488C13.6646 -0.0460959 13.3288 -0.0460959 13.0851 0.14488L0.250237 10.3522C-0.0329337 10.5761 -0.0790312 10.991 0.144871 11.2807C0.368774 11.5639 0.783652 11.61 1.07341 11.3861L2.44316 10.2995V26.348C2.44316 26.7102 2.73951 27.0066 3.1017 27.0066H23.9115C24.2737 27.0066 24.57 26.7102 24.57 26.348V10.2929L25.9397 11.3795C26.0583 11.4783 26.2032 11.5244 26.348 11.5244C26.539 11.5244 26.7366 11.4388 26.8617 11.2741C27.0856 10.991 27.0395 10.5761 26.7563 10.3456L13.9083 0.14488ZM23.2463 25.6829H3.75365V9.24586L13.5 1.50146L23.2463 9.25244V25.6895V25.6829Z" fill="#EAB8F2"/>
</g>
<defs>
<clipPath id="clip0_7_246">
<rect width="27" height="27" fill="white"/>
</clipPath>
</defs>
</svg>
