<svg width="25" height="28" viewBox="0 0 25 28" fill="none" xmlns="http://www.w3.org/2000/svg">
<g clip-path="url(#clip0_1_277)">
<path d="M21.1987 27.2769H3.06259C1.3793 27.2769 0.0151978 25.8936 0.0151978 24.1866V5.79139C0.0151978 4.08441 1.3793 2.70111 3.06259 2.70111H21.1987C22.8782 2.71267 24.2347 4.08827 24.2461 5.79139V24.1712C24.2461 25.8782 22.882 27.2654 21.1987 27.2769ZM3.06259 4.61616C2.43183 4.61616 1.91887 5.13634 1.91887 5.77598V24.1712C1.91887 24.8109 2.43183 25.331 3.06259 25.331H21.1987C21.8295 25.331 22.3425 24.8109 22.3425 24.1712V5.79139C22.3425 5.15176 21.8295 4.63157 21.1987 4.63157L3.06259 4.61616Z" fill="#EAB8F2"/>
<path d="M7.07131 8.14184C6.54695 8.14184 6.12138 7.71028 6.12138 7.17469V0.967157C6.12138 0.435413 6.54695 0 7.07131 0C7.59568 0 8.02505 0.43156 8.02505 0.967157V7.17854C8.02505 7.4367 7.92626 7.67946 7.74767 7.86441C7.56908 8.04551 7.3259 8.1457 7.07131 8.1457V8.14184Z" fill="#EAB8F2"/>
<path d="M17.171 8.14184C16.6467 8.14184 16.2211 7.71028 16.2211 7.17469V0.967157C16.2211 0.435413 16.6467 0 17.171 0C17.6954 0 18.1248 0.43156 18.1248 0.967157V7.17854C18.1248 7.43285 18.0222 7.67946 17.8474 7.86056C17.6726 8.04166 17.4256 8.14184 17.1748 8.14184H17.171Z" fill="#EAB8F2"/>
<path d="M23.2962 12.1723H0.949935C0.425571 12.1723 0 11.7408 0 11.209C0 10.6773 0.425571 10.2419 0.949935 10.2419H23.2962C23.8206 10.2419 24.2461 10.6734 24.2461 11.209C24.2461 11.7446 23.8206 12.1723 23.2962 12.1723Z" fill="#EAB8F2"/>
</g>
<defs>
<clipPath id="clip0_1_277">
<rect width="24.2461" height="27.2769" fill="white"/>
</clipPath>
</defs>
</svg>
