<svg width="28" height="28" viewBox="0 0 28 28" fill="none" xmlns="http://www.w3.org/2000/svg">
<g clip-path="url(#clip0_1_275)">
<path d="M13.6385 0C10.0223 0 6.55269 1.4371 3.99334 3.99334C1.4371 6.55269 0 10.0223 0 13.6385C0 17.2546 1.4371 20.7242 3.99334 23.2836C6.55269 25.8398 10.0223 27.2769 13.6385 27.2769C17.2546 27.2769 20.7242 25.8398 23.2836 23.2836C25.8398 20.7242 27.2769 17.2546 27.2769 13.6385C27.2738 10.0223 25.8367 6.55581 23.2773 3.99957C20.718 1.44334 17.2546 0.00311736 13.6385 0ZM13.6385 25.3286C10.5367 25.3286 7.56583 24.0972 5.37121 21.9057C3.17659 19.7142 1.94835 16.7402 1.94835 13.6385C1.94835 10.5367 3.17971 7.56583 5.37121 5.37121C7.56272 3.17659 10.5367 1.94835 13.6385 1.94835C16.7402 1.94835 19.7111 3.17971 21.9057 5.37121C24.1003 7.56272 25.3286 10.5367 25.3286 13.6385C25.3254 16.7371 24.0941 19.708 21.8995 21.8995C19.7048 24.091 16.7371 25.3223 13.6385 25.3286ZM19.1998 17.8188C19.5801 18.1992 19.5801 18.8164 19.1998 19.1967C18.8195 19.577 18.2023 19.577 17.822 19.1967L13.2363 14.6111C12.8685 14.2463 12.6627 13.7507 12.6658 13.2332V4.86932C12.6658 4.33001 13.1023 3.8967 13.6385 3.8967C14.1746 3.8967 14.6111 4.33313 14.6111 4.86932V13.2332L19.1967 17.8188H19.1998Z" fill="#EAB8F2"/>
</g>
<defs>
<clipPath id="clip0_1_275">
<rect width="27.2769" height="27.2769" fill="white"/>
</clipPath>
</defs>
</svg>
